<svg viewBox="0 64 1024 896" fill="currentColor" xmlns="http://www.w3.org/2000/svg">
  <path d="M0,342.5C0,304.167 7.16667,268.167 21.5,234.5C35.8333,200.833 55.4167,171.333 80.25,146C105.083,120.667 134.25,100.667 167.75,86C201.25,71.3334 237.333,64.0001 276,64C313.333,64.0001 348.917,71.1667 382.75,85.5C416.583,99.8334 446.667,120.167 473,146.5C476.333,149.833 479.667,153.167 483,156.5L501.5,175.5C504.833,178.833 508.167,182.167 511.5,185.5C517.833,178.833 524.083,172.333 530.25,166C536.417,159.667 542.833,153.333 549.5,147C575.5,121 605.333,100.917 639,86.75C672.667,72.5834 708,65.5001 745,65.5C783.667,65.5001 820,72.9167 854,87.75C888,102.583 917.583,122.75 942.75,148.25C967.917,173.75 987.75,203.5 1002.25,237.5C1016.75,271.5 1024,307.833 1024,346.5C1024,383.167 1017.08,418.75 1003.25,453.25C989.417,487.75 969.5,518 943.5,544L544,947.5C535.667,955.833 525.5,960 513.5,960C501.833,960 491.833,955.833 483.5,947.5L81.5,541.5C55.1667,514.833 35,484.333 21,450C7,415.667 0,379.833 0,342.5ZM960,346.5C960,316.833 954.417,288.833 943.25,262.5C932.083,236.167 916.75,213.167 897.25,193.5C877.75,173.833 855,158.25 829,146.75C803,135.25 775,129.5 745,129.5C716.667,129.5 689.583,134.917 663.75,145.75C637.917,156.583 615,172 595,192C588.667,198.333 582.417,204.833 576.25,211.5C570.083,218.167 563.667,224.5 557,230.5C550.333,236.833 543.417,241.5 536.25,244.5C529.083,247.5 520.833,249 511.5,249C502.5,249 494.333,247.417 487,244.25C479.667,241.083 472.667,236.5 466,230.5C459.333,224.167 452.917,217.75 446.75,211.25C440.583,204.75 434.167,198.167 427.5,191.5C406.833,171.167 383.75,155.5 358.25,144.5C332.75,133.5 305.333,128 276,128C246.333,128 218.583,133.667 192.75,145C166.917,156.333 144.5,171.667 125.5,191C106.5,210.333 91.5,233.083 80.5,259.25C69.5,285.417 64,313.167 64,342.5C64,371.167 69.5,398.917 80.5,425.75C91.5,452.583 107,476.167 127,496.5L513.5,887L898,499C918,478.667 933.333,455.25 944,428.75C954.667,402.25 960,374.833 960,346.5Z"></path>
</svg>